# Noesis .obj export.
#
mtllib unused.mtl
g
v  0.000000 17.019157 7.049555
v  0.000000 18.421406 0.000000
v  0.000000 10.791954 0.000000
v  0.000000 9.970463 4.129896
v  0.000000 18.421406 0.000000
v  0.000000 17.019157 -7.049567
v  0.000000 9.970463 -4.129903
v  0.000000 10.791954 0.000000
v  0.000000 17.019157 -7.049567
v  0.000000 13.025899 -13.025901
v  0.000000 7.631064 -7.631064
v  0.000000 9.970463 -4.129903
v  0.000000 13.025899 -13.025901
v  0.000000 7.049565 -17.019159
v  0.000000 4.129901 -9.970465
v  0.000000 7.631064 -7.631064
v  0.000000 7.049565 -17.019159
v  0.000000 -0.000003 -18.421404
v  0.000000 -0.000001 -10.791952
v  0.000000 4.129901 -9.970465
v  0.000000 -0.000003 -18.421404
v  0.000000 -7.049569 -17.019157
v  0.000000 -4.129904 -9.970463
v  0.000000 -0.000001 -10.791952
v  0.000000 -7.049569 -17.019157
v  0.000000 -13.025904 -13.025896
v  0.000000 -7.631066 -7.631061
v  0.000000 -4.129904 -9.970463
v  0.000000 -13.025904 -13.025896
v  0.000000 -17.019157 -7.049561
v  0.000000 -9.970463 -4.129899
v  0.000000 -7.631066 -7.631061
v  0.000000 -17.019157 -7.049561
v  0.000000 -18.421402 0.000006
v  0.000000 -10.791950 0.000003
v  0.000000 -9.970463 -4.129899
v  0.000000 -18.421402 0.000006
v  0.000000 -17.019154 7.049571
v  0.000000 -9.970463 4.129904
v  0.000000 -10.791950 0.000003
v  0.000000 -17.019154 7.049571
v  0.000000 -13.025892 13.025904
v  0.000000 -7.631059 7.631064
v  0.000000 -9.970463 4.129904
v  0.000000 -13.025892 13.025904
v  0.000000 -7.049558 17.019157
v  0.000000 -4.129897 9.970463
v  0.000000 -7.631059 7.631064
v  0.000000 -7.049558 17.019157
v  0.000000 0.000008 18.421398
v  0.000000 0.000005 10.791952
v  0.000000 -4.129897 9.970463
v  0.000000 0.000008 18.421398
v  0.000000 7.049572 17.019154
v  0.000000 4.129906 9.970463
v  0.000000 0.000005 10.791952
v  0.000000 7.049572 17.019154
v  0.000000 13.025904 13.025891
v  0.000000 7.631065 7.631058
v  0.000000 4.129906 9.970463
v  0.000000 13.025904 13.025891
v  0.000000 17.019157 7.049555
v  0.000000 9.970463 4.129896
v  0.000000 7.631065 7.631058
v  0.000000 0.000000 0.000000
v  0.000000 -4.129897 9.970463
v  0.000000 0.000005 10.791952
v  0.000000 4.129906 9.970463
v  0.000000 7.631065 7.631058
v  0.000000 -7.631059 7.631064
v  0.000000 -9.970463 4.129904
v  0.000000 -10.791950 0.000003
v  0.000000 -9.970463 -4.129899
v  0.000000 -7.631066 -7.631061
v  0.000000 -4.129904 -9.970463
v  0.000000 -0.000001 -10.791952
v  0.000000 4.129901 -9.970465
v  0.000000 7.631064 -7.631064
v  0.000000 9.970463 -4.129903
v  0.000000 10.791954 0.000000
v  0.000000 9.970463 4.129896

vt  0.902552 -4.000000 0.000000
vt  1.106989 -4.000000 0.000000
vt  1.106989 -0.000000 0.000000
vt  0.902552 -0.000000 0.000000
vt  0.902552 -4.000000 0.000000
vt  1.106989 -4.000000 0.000000
vt  1.106989 -0.000000 0.000000
vt  0.902552 -0.000000 0.000000
vt  0.902552 -4.000000 0.000000
vt  1.106989 -4.000000 0.000000
vt  1.106989 -0.000000 0.000000
vt  0.902552 -0.000000 0.000000
vt  0.902552 -4.000000 0.000000
vt  1.106989 -4.000000 0.000000
vt  1.106989 -0.000000 0.000000
vt  0.902552 -0.000000 0.000000
vt  0.902552 -4.000000 0.000000
vt  1.106989 -4.000000 0.000000
vt  1.106989 -0.000000 0.000000
vt  0.902552 -0.000000 0.000000
vt  0.902552 -4.000000 0.000000
vt  1.106989 -4.000000 0.000000
vt  1.106989 -0.000000 0.000000
vt  0.902552 -0.000000 0.000000
vt  0.902552 -4.000000 0.000000
vt  1.106989 -4.000000 0.000000
vt  1.106989 -0.000000 0.000000
vt  0.902552 -0.000000 0.000000
vt  0.902552 -4.000000 0.000000
vt  1.106989 -4.000000 0.000000
vt  1.106989 -0.000000 0.000000
vt  0.902552 -0.000000 0.000000
vt  0.902552 -4.000000 0.000000
vt  1.106989 -4.000000 0.000000
vt  1.106989 -0.000000 0.000000
vt  0.902552 -0.000000 0.000000
vt  0.902552 -4.000000 0.000000
vt  1.106989 -4.000000 0.000000
vt  1.106989 -0.000000 0.000000
vt  0.902552 -0.000000 0.000000
vt  0.902552 -4.000000 0.000000
vt  1.106989 -4.000000 0.000000
vt  1.106989 -0.000000 0.000000
vt  0.902552 -0.000000 0.000000
vt  0.902552 -4.000000 0.000000
vt  1.106989 -4.000000 0.000000
vt  1.106989 -0.000000 0.000000
vt  0.902552 -0.000000 0.000000
vt  0.902552 -4.000000 0.000000
vt  1.106989 -4.000000 0.000000
vt  1.106989 -0.000000 0.000000
vt  0.902552 -0.000000 0.000000
vt  0.902552 -4.000000 0.000000
vt  1.106989 -4.000000 0.000000
vt  1.106989 -0.000000 0.000000
vt  0.902552 -0.000000 0.000000
vt  0.902552 -4.000000 0.000000
vt  1.106989 -4.000000 0.000000
vt  1.106989 -0.000000 0.000000
vt  0.902552 -0.000000 0.000000
vt  0.902552 -4.000000 0.000000
vt  1.106989 -4.000000 0.000000
vt  1.106989 -0.000000 0.000000
vt  0.902552 -0.000000 0.000000
vt  0.997581 1.012248 0.000000
vt  0.997581 -0.000000 0.000000
vt  0.997581 -0.000000 0.000000
vt  0.997581 -0.000000 0.000000
vt  0.997581 -0.000000 0.000000
vt  0.997581 -0.000000 0.000000
vt  0.997581 -0.000000 0.000000
vt  0.997581 -0.000000 0.000000
vt  0.997581 -0.000000 0.000000
vt  0.997581 -0.000000 0.000000
vt  0.997581 -0.000000 0.000000
vt  0.997581 -0.000000 0.000000
vt  0.997581 -0.000000 0.000000
vt  0.997581 -0.000000 0.000000
vt  0.997581 -0.000000 0.000000
vt  0.997581 -0.000000 0.000000
vt  0.997581 -0.000000 0.000000

vn  1.000000 0.000000 0.000000
vn  1.000000 0.000000 0.000000
vn  1.000000 0.000000 0.000000
vn  1.000000 0.000000 0.000000
vn  1.000000 0.000000 0.000000
vn  1.000000 0.000000 0.000000
vn  1.000000 0.000000 0.000000
vn  1.000000 0.000000 0.000000
vn  1.000000 0.000000 0.000000
vn  1.000000 0.000000 0.000000
vn  1.000000 0.000000 0.000000
vn  1.000000 0.000000 0.000000
vn  1.000000 0.000000 0.000000
vn  1.000000 0.000000 0.000000
vn  1.000000 0.000000 0.000000
vn  1.000000 0.000000 0.000000
vn  1.000000 0.000000 0.000000
vn  1.000000 0.000000 0.000000
vn  1.000000 0.000000 0.000000
vn  1.000000 0.000000 0.000000
vn  1.000000 0.000000 0.000000
vn  1.000000 0.000000 0.000000
vn  1.000000 0.000000 0.000000
vn  1.000000 0.000000 0.000000
vn  1.000000 0.000000 0.000000
vn  1.000000 0.000000 0.000000
vn  1.000000 0.000000 0.000000
vn  1.000000 0.000000 0.000000
vn  1.000000 0.000000 0.000000
vn  1.000000 0.000000 0.000000
vn  1.000000 0.000000 0.000000
vn  1.000000 0.000000 0.000000
vn  1.000000 0.000000 0.000000
vn  1.000000 0.000000 0.000000
vn  1.000000 0.000000 0.000000
vn  1.000000 0.000000 0.000000
vn  1.000000 0.000000 0.000000
vn  1.000000 0.000000 0.000000
vn  1.000000 0.000000 0.000000
vn  1.000000 0.000000 0.000000
vn  1.000000 0.000000 0.000000
vn  1.000000 0.000000 0.000000
vn  1.000000 0.000000 0.000000
vn  1.000000 0.000000 0.000000
vn  1.000000 0.000000 0.000000
vn  1.000000 0.000000 0.000000
vn  1.000000 0.000000 0.000000
vn  1.000000 0.000000 0.000000
vn  1.000000 0.000000 0.000000
vn  1.000000 0.000000 0.000000
vn  1.000000 0.000000 0.000000
vn  1.000000 0.000000 0.000000
vn  1.000000 0.000000 0.000000
vn  1.000000 0.000000 0.000000
vn  1.000000 0.000000 0.000000
vn  1.000000 0.000000 0.000000
vn  1.000000 0.000000 0.000000
vn  1.000000 0.000000 0.000000
vn  1.000000 0.000000 0.000000
vn  1.000000 0.000000 0.000000
vn  1.000000 0.000000 0.000000
vn  1.000000 0.000000 0.000000
vn  1.000000 0.000000 0.000000
vn  1.000000 0.000000 0.000000
vn  1.000000 0.000000 0.000000
vn  1.000000 0.000000 0.000000
vn  1.000000 0.000000 0.000000
vn  1.000000 0.000000 0.000000
vn  1.000000 0.000000 0.000000
vn  1.000000 0.000000 0.000000
vn  1.000000 0.000000 0.000000
vn  1.000000 0.000000 0.000000
vn  1.000000 0.000000 0.000000
vn  1.000000 0.000000 0.000000
vn  1.000000 0.000000 0.000000
vn  1.000000 0.000000 0.000000
vn  1.000000 0.000000 0.000000
vn  1.000000 0.000000 0.000000
vn  1.000000 0.000000 0.000000
vn  1.000000 0.000000 0.000000
vn  1.000000 0.000000 0.000000

g rdmobj00
usemtl fog
f  3/3/3 2/2/2 1/1/1
f  4/4/4 3/3/3 1/1/1
f  7/7/7 6/6/6 5/5/5
f  8/8/8 7/7/7 5/5/5
f  11/11/11 10/10/10 9/9/9
f  12/12/12 11/11/11 9/9/9
f  15/15/15 14/14/14 13/13/13
f  16/16/16 15/15/15 13/13/13
f  19/19/19 18/18/18 17/17/17
f  20/20/20 19/19/19 17/17/17
f  23/23/23 22/22/22 21/21/21
f  24/24/24 23/23/23 21/21/21
f  27/27/27 26/26/26 25/25/25
f  28/28/28 27/27/27 25/25/25
f  31/31/31 30/30/30 29/29/29
f  32/32/32 31/31/31 29/29/29
f  35/35/35 34/34/34 33/33/33
f  36/36/36 35/35/35 33/33/33
f  39/39/39 38/38/38 37/37/37
f  40/40/40 39/39/39 37/37/37
f  43/43/43 42/42/42 41/41/41
f  44/44/44 43/43/43 41/41/41
f  47/47/47 46/46/46 45/45/45
f  48/48/48 47/47/47 45/45/45
f  51/51/51 50/50/50 49/49/49
f  52/52/52 51/51/51 49/49/49
f  55/55/55 54/54/54 53/53/53
f  56/56/56 55/55/55 53/53/53
f  59/59/59 58/58/58 57/57/57
f  60/60/60 59/59/59 57/57/57
f  63/63/63 62/62/62 61/61/61
f  64/64/64 63/63/63 61/61/61
f  67/67/67 66/66/66 65/65/65
f  68/68/68 67/67/67 65/65/65
f  68/68/68 65/65/65 69/69/69
f  65/65/65 66/66/66 70/70/70
f  71/71/71 65/65/65 70/70/70
f  65/65/65 71/71/71 72/72/72
f  73/73/73 65/65/65 72/72/72
f  65/65/65 73/73/73 74/74/74
f  75/75/75 65/65/65 74/74/74
f  65/65/65 75/75/75 76/76/76
f  77/77/77 65/65/65 76/76/76
f  65/65/65 77/77/77 78/78/78
f  79/79/79 65/65/65 78/78/78
f  65/65/65 79/79/79 80/80/80
f  81/81/81 65/65/65 80/80/80
f  69/69/69 65/65/65 81/81/81

g
